<svg width="1732" height="620" viewBox="0 0 1732 620" fill="none" xmlns="http://www.w3.org/2000/svg">
<g clip-path="url(#clip0_1_2)">
<rect width="1732" height="620" fill="white"/>
<path d="M1732 -460H0V621H1732V-460Z" fill="#0871A5"/>
<rect x="-50" y="491" width="1782" height="129" fill="url(#paint0_linear_1_2)"/>
<path d="M1603 78.8792L1732 68V632L1603 491.125V78.8792Z" fill="#068FD3"/>
<rect y="344" width="748" height="21" fill="#535353"/>
<rect y="117" width="865" height="227" fill="#A7E1F0"/>
<rect x="299" y="279" width="37" height="12" rx="4" fill="#BEEEFA"/>
<rect x="241" y="233" width="37" height="12" rx="4" fill="#BEEEFA"/>
<rect x="403" y="245" width="37" height="12" rx="4" fill="#BEEEFA"/>
<rect x="531" y="255" width="37" height="12" rx="4" fill="#BEEEFA"/>
<rect x="465" y="326" width="37" height="12" rx="4" fill="#BEEEFA"/>
<rect x="611" y="284" width="37" height="12" rx="4" fill="#BEEEFA"/>
<rect x="714" y="216" width="37" height="12" rx="4" fill="#BEEEFA"/>
<rect x="722" y="326" width="37" height="12" rx="4" fill="#BEEEFA"/>
<rect x="821" y="237" width="37" height="12" rx="4" fill="#BEEEFA"/>
<rect x="208" y="324" width="37" height="12" rx="4" fill="#BEEEFA"/>
<rect x="167" y="303" width="37" height="12" rx="4" fill="#BEEEFA"/>
<rect x="102" y="279" width="37" height="12" rx="4" fill="#BEEEFA"/>
<rect x="102" y="213" width="37" height="12" rx="4" fill="#BEEEFA"/>
<rect x="17" y="309" width="37" height="12" rx="4" fill="#BEEEFA"/>
<rect x="431" y="219" width="37" height="12" rx="4" fill="#BEEEFA"/>
<rect y="251" width="37" height="12" rx="4" fill="#BEEEFA"/>
<rect x="951" y="496" width="27" height="5" fill="white"/>
<rect x="750" y="366" width="206" height="145" rx="2" fill="#F8F8F8" stroke="#ABABAB" stroke-width="4"/>
<rect x="750" y="52" width="206" height="310" rx="2" fill="#F8F8F8" stroke="#ABABAB" stroke-width="4"/>
<rect x="748" y="513" width="210" height="20" fill="#403E3E"/>
<rect x="361" y="365" width="219" height="167" rx="2" fill="#008087" stroke="#F9F9F9" stroke-width="2"/>
<rect x="397" y="378" width="148" height="10" rx="4" fill="#403E3E"/>
<rect x="55" y="365" width="100" height="167" rx="2" fill="#008087" stroke="#F9F9F9" stroke-width="2"/>
<rect x="71.0769" y="378" width="68.3077" height="10" rx="4" fill="#403E3E"/>
<rect x="55" y="118" width="100" height="164" rx="2" fill="#008087" stroke="#F9F9F9" stroke-width="2"/>
<rect x="66" y="207" width="10" height="45.0864" rx="4" fill="#403E3E"/>
<rect x="-1" y="1" width="100" height="164" rx="2" transform="matrix(-1 0 0 1 52 117)" fill="#008087" stroke="#F9F9F9" stroke-width="2"/>
<rect width="10" height="45.0864" rx="4" transform="matrix(-1 0 0 1 41 207)" fill="#403E3E"/>
<rect x="-47" y="365" width="100" height="167" rx="2" fill="#008087" stroke="#F9F9F9" stroke-width="2"/>
<rect x="-30.9231" y="378" width="68.3077" height="10" rx="4" fill="#403E3E"/>
<rect x="582" y="365" width="165" height="83" rx="2" fill="#008087" stroke="#F9F9F9" stroke-width="2"/>
<rect x="591" y="373" width="148" height="10" rx="4" fill="#403E3E"/>
<rect x="582" y="449" width="165" height="83" rx="2" fill="#008087" stroke="#F9F9F9" stroke-width="2"/>
<rect x="591" y="457" width="148" height="10" rx="4" fill="#403E3E"/>
<g filter="url(#filter0_d_1_2)">
<path d="M71 363H125V458.838C125 460.885 122.994 462.331 121.051 461.684L82.6241 448.875C75.6823 446.561 71 440.064 71 432.747V363Z" fill="white"/>
<path d="M72 364H124V458.838C124 460.203 122.663 461.167 121.368 460.735L82.9403 447.926C76.4069 445.748 72 439.634 72 432.747V364Z" stroke="#0088D5" stroke-width="2"/>
</g>
<rect x="157" y="396" width="202" height="136" fill="#403E3E" stroke="#008087" stroke-width="2"/>
<rect x="157" y="365" width="202" height="29" fill="#403E3E" stroke="#008087" stroke-width="2"/>
<rect x="193" y="420" width="133" height="86" fill="#242424"/>
<rect x="193" y="375" width="47" height="10" fill="#242424"/>
<rect x="250" y="375" width="10" height="10" rx="5" fill="#242424"/>
<rect x="268" y="375" width="10" height="10" rx="5" fill="#242424"/>
<g filter="url(#filter1_d_1_2)">
<path d="M378 303H443L436 344H386L378 303Z" fill="#0088D5"/>
<path d="M443 301L378 301L381.485 297.515C383.736 295.264 386.788 294 389.971 294L430.491 294C433.398 294 436.206 295.055 438.393 296.969L443 301Z" fill="#0088D5"/>
<rect x="378" y="301" width="65" height="2" fill="#242424"/>
<rect x="405" y="291" width="12" height="3" fill="#242424"/>
</g>
<g filter="url(#filter2_d_1_2)">
<rect x="494" y="204" width="102" height="24" rx="3" fill="#535353"/>
<rect x="558" y="215" width="10" height="55" rx="5" fill="#BD7827"/>
<rect x="551" y="263" width="24" height="33" rx="5" fill="#BD7827"/>
<rect x="528" y="215" width="10" height="55" rx="5" fill="#403E3E"/>
<rect x="521" y="263" width="24" height="33" rx="5" fill="white"/>
</g>
<g filter="url(#filter3_d_1_2)">
<rect x="170" y="200" width="179" height="4" fill="#242424"/>
<g filter="url(#filter4_d_1_2)">
<path d="M259.5 150.5H206.314L170 200H259.5V150.5Z" fill="#535353"/>
<path d="M259.5 150.5H206.314V-114H259.5V150.5Z" fill="#535353"/>
</g>
<path d="M259.5 150.5H312.686L349 200H259.5V150.5Z" fill="#535353"/>
<path d="M259.5 150.5H312.686V-114H259.5V150.5Z" fill="#535353"/>
</g>
<rect x="507" y="155" width="10" height="9" fill="#535353"/>
<rect x="557" y="155" width="10" height="9" fill="#535353"/>
<rect x="431" y="144" width="217" height="11" rx="2" fill="#008087"/>
<rect x="507" y="61" width="10" height="9" fill="#535353"/>
<rect x="558" y="61" width="10" height="9" fill="#535353"/>
<rect x="431" y="50" width="217" height="11" rx="2" fill="#008087"/>
<g filter="url(#filter5_d_1_2)">
<path d="M458.447 96.8944C457.782 95.5646 458.749 94 460.236 94H495.866C497.328 94 498.296 95.5166 497.68 96.8422L493.038 106.842C492.71 107.548 492.002 108 491.224 108H465.236C464.479 108 463.786 107.572 463.447 106.894L458.447 96.8944Z" fill="#F3F3F3"/>
</g>
<g filter="url(#filter6_d_1_2)">
<path d="M458.447 105.894C457.782 104.565 458.749 103 460.236 103H495.866C497.328 103 498.296 104.517 497.68 105.842L493.038 115.842C492.71 116.548 492.002 117 491.224 117H465.236C464.479 117 463.786 116.572 463.447 115.894L458.447 105.894Z" fill="#F3F3F3"/>
</g>
<g filter="url(#filter7_d_1_2)">
<path d="M458.447 114.894C457.782 113.565 458.749 112 460.236 112H495.866C497.328 112 498.296 113.517 497.68 114.842L493.038 124.842C492.71 125.548 492.002 126 491.224 126H465.236C464.479 126 463.786 125.572 463.447 124.894L458.447 114.894Z" fill="#F3F3F3"/>
</g>
<g filter="url(#filter8_d_1_2)">
<path d="M458.447 123.894C457.782 122.565 458.749 121 460.236 121H495.866C497.328 121 498.296 122.517 497.68 123.842L493.038 133.842C492.71 134.548 492.002 135 491.224 135H465.236C464.479 135 463.786 134.572 463.447 133.894L458.447 123.894Z" fill="#F3F3F3"/>
</g>
<g filter="url(#filter9_d_1_2)">
<path d="M458.447 132.894C457.782 131.565 458.749 130 460.236 130H495.866C497.328 130 498.296 131.517 497.68 132.842L493.038 142.842C492.71 143.548 492.002 144 491.224 144H465.236C464.479 144 463.786 143.572 463.447 142.894L458.447 132.894Z" fill="#F3F3F3"/>
</g>
<g filter="url(#filter10_d_1_2)">
<path d="M495.447 38.8944C494.782 37.5646 495.749 36 497.236 36H532.866C534.328 36 535.296 37.5166 534.68 38.8422L530.038 48.8422C529.71 49.5483 529.002 50 528.224 50H502.236C501.479 50 500.786 49.572 500.447 48.8944L495.447 38.8944Z" fill="#F3F3F3"/>
</g>
<g filter="url(#filter11_d_1_2)">
<path d="M580.039 26.4105C579.053 23.7946 580.986 21 583.782 21H608.218C611.014 21 612.947 23.7946 611.961 26.4106L603.448 49H588.552L580.039 26.4105Z" fill="#403E3E"/>
<path d="M603.448 49H588.552V49C587.726 49.6656 588.196 51 589.257 51H602.743C603.804 51 604.274 49.6656 603.448 49V49Z" fill="#403E3E"/>
</g>
<rect x="1216.02" y="131" width="359" height="249" fill="#88E2FF" stroke="white" stroke-width="6"/>
<rect x="1212.02" y="127" width="366" height="90" fill="#FFDCB4" fill-opacity="0.35"/>
<rect x="1196.02" y="123" width="400" height="5" fill="#DA9544"/>
<rect x="1213.02" y="136" width="365" height="3" fill="#FFDCB4"/>
<rect x="1213.02" y="150" width="365" height="3" fill="#FFDCB4"/>
<rect x="1213.02" y="164" width="365" height="3" fill="#FFDCB4"/>
<rect x="1213.02" y="178" width="365" height="3" fill="#FFDCB4"/>
<rect x="1213.02" y="192" width="365" height="3" fill="#FFDCB4"/>
<rect x="1213.01" y="208.761" width="365" height="3" transform="rotate(-0.866834 1213.01 208.761)" fill="#FFDCB4"/>
<rect x="1213.02" y="199" width="365" height="3" fill="#FFDCB4"/>
<rect x="1213.02" y="185" width="365" height="3" fill="#FFDCB4"/>
<rect x="1213.02" y="171" width="365" height="3" fill="#FFDCB4"/>
<rect x="1213.02" y="157" width="365" height="3" fill="#FFDCB4"/>
<rect x="1213.02" y="143" width="365" height="3" fill="#FFDCB4"/>
<rect x="1196" y="217.556" width="400" height="5" transform="rotate(-0.732318 1196 217.556)" fill="#DA9544"/>
<rect x="1215.02" y="127" width="2" height="199" fill="#DA9544"/>
<circle cx="535.5" cy="122.5" r="21.5" fill="#F8F8F8"/>
<circle cx="535.5" cy="122.5" r="16" fill="#E2E2E2" stroke="#0088D5"/>
<circle cx="585.5" cy="122.5" r="21.5" fill="#F8F8F8"/>
<circle cx="585.5" cy="122.5" r="16" fill="#E2E2E2" stroke="#0088D5"/>
<path d="M710.664 262.921V279.372H653C650.515 279.372 648.5 277.358 648.5 274.872V208.781C648.5 206.296 650.515 204.281 653 204.281H726C728.485 204.281 730.5 206.296 730.5 208.781V257.421H716.164C713.126 257.421 710.664 259.884 710.664 262.921Z" fill="#00AFB9" stroke="#008087"/>
<path d="M648 208C648 205.239 650.239 203 653 203H726C728.761 203 731 205.239 731 208V213.412H648V208Z" fill="#0081A7"/>
<path d="M653.655 213.412H725.345V258.225L718.298 265.708L711.251 273.192H653.655V213.412Z" fill="#EEEEEE"/>
<rect x="694.546" y="255.058" width="11.7453" height="11.7131" fill="#F07167"/>
<rect x="677.929" y="255.058" width="11.7453" height="11.7131" fill="#D7D7D7"/>
<rect x="677.929" y="239.007" width="11.7453" height="11.7131" fill="#D7D7D7"/>
<rect x="694.546" y="239.007" width="11.7453" height="11.7131" fill="#D7D7D7"/>
<rect x="711.164" y="239.007" width="11.7453" height="11.7131" fill="#D7D7D7"/>
<rect x="711.164" y="222.956" width="11.7453" height="11.7131" fill="#D7D7D7"/>
<rect x="694.546" y="222.956" width="11.7453" height="11.7131" fill="#D7D7D7"/>
<rect x="677.929" y="222.956" width="11.7453" height="11.7131" fill="#D7D7D7"/>
<rect x="661" y="223" width="11.7453" height="11.7131" fill="#D7D7D7"/>
<rect x="661" y="239" width="11.7453" height="11.7131" fill="#D7D7D7"/>
<rect x="661" y="255" width="11.7453" height="11.7131" fill="#D7D7D7"/>
<path d="M731 257.921L711.164 279.872V257.921H731Z" fill="#008087"/>
<g filter="url(#filter12_d_1_2)">
<path d="M974 111C974 108.239 976.239 106 979 106H1218C1220.76 106 1223 108.239 1223 111V513H974V111Z" fill="#BD7827"/>
<rect x="974" y="513" width="27" height="22" fill="#BD7827"/>
<rect x="1196" y="512" width="27" height="22" fill="#BD7827"/>
<rect x="982" y="116" width="233" height="151" fill="#8B5D27"/>
<rect x="982" y="273" width="233" height="61" fill="#8B5D27"/>
<rect x="982" y="340" width="233" height="61" fill="#76450B"/>
<rect x="982" y="340" width="233" height="61" fill="#8B5D27"/>
<rect x="982" y="407" width="113" height="89" fill="#D8913F"/>
<rect x="1099" y="407" width="113" height="89" fill="#76450B"/>
<g filter="url(#filter13_d_1_2)">
<path d="M1102 412.5L1215 407V496L1102 503.5V412.5Z" fill="#D8913F"/>
</g>
<g filter="url(#filter14_d_1_2)">
<path d="M1171.58 230.025C1174.52 215.988 1178.64 187.65 1171.58 186.597C1162.75 185.281 1166.73 143.388 1179.75 144.046" stroke="#00BA4A" stroke-width="3"/>
<path d="M1175.02 207.454C1173.44 204.444 1168.83 199.242 1162.98 202.51M1175.66 197.135C1177.6 193.051 1181.85 186.086 1185.98 188.322" stroke="#00BA4A" stroke-width="2"/>
<path d="M1166.85 173.704C1165.56 168.903 1160.92 160.806 1152.66 166.825" stroke="#00BA4A" stroke-width="2"/>
<path d="M1168.14 160.591C1169.79 158.513 1173.73 155.131 1176.31 158.226" stroke="#00BA4A" stroke-width="2"/>
<path d="M1160.25 205.652C1159.56 208.432 1156.66 207.338 1155.29 206.443C1155.93 204.104 1157.59 200.019 1159.13 202.399C1157.21 199.254 1159.55 197.084 1157.81 197.142C1157.66 197.153 1157.54 197.166 1157.45 197.178C1157.41 197.183 1157.38 197.188 1157.35 197.194C1157.15 197.227 1157.21 197.206 1157.45 197.178C1157.58 197.158 1157.7 197.146 1157.81 197.142C1159.25 197.031 1162.86 197.083 1162.92 200.191C1163.6 200.185 1167.28 201.648 1164.31 204.257C1166.54 207.129 1160.57 211.224 1161.5 209.312C1162.25 207.783 1160.98 206.235 1160.25 205.652Z" fill="#00BA4A"/>
<path d="M1164.31 204.257C1163.24 203.564 1160.93 202.873 1160.25 205.652M1164.31 204.257C1167.28 201.648 1163.6 200.185 1162.92 200.191M1164.31 204.257C1166.54 207.129 1160.57 211.224 1161.5 209.312C1162.25 207.783 1160.98 206.235 1160.25 205.652M1160.25 205.652C1159.56 208.432 1156.66 207.338 1155.29 206.443C1155.93 204.104 1157.59 200.019 1159.13 202.399M1159.13 202.399C1161.06 205.373 1162.24 200.197 1162.92 200.191M1159.13 202.399C1157.06 199.018 1159.92 196.763 1157.35 197.194C1156.27 197.373 1162.84 195.99 1162.92 200.191" stroke="#00BA4A" stroke-width="2"/>
<path d="M1193.44 190.136C1197.88 187.502 1201.44 192.333 1202.67 195.078C1198.83 197.221 1191.22 200.308 1191.45 195.509C1190.91 202.18 1188.27 204.106 1188.27 204.106C1188.27 204.106 1177.65 199.031 1182.5 193.724C1181.36 192.919 1176.93 186.698 1184.99 187.007C1184.66 180.778 1199.51 182.836 1195.68 184.092C1192.61 185.096 1192.91 188.54 1193.44 190.136Z" fill="#00BA4A"/>
<path d="M1184.99 187.007C1185.96 189.148 1189.01 192.771 1193.44 190.136M1184.99 187.007C1176.93 186.698 1181.36 192.919 1182.5 193.724M1184.99 187.007C1184.66 180.778 1199.51 182.836 1195.68 184.092C1192.61 185.096 1192.91 188.54 1193.44 190.136M1193.44 190.136C1197.88 187.502 1201.44 192.333 1202.67 195.078C1198.83 197.221 1191.22 200.308 1191.45 195.509M1191.45 195.509C1191.75 189.51 1183.64 194.529 1182.5 193.724M1191.45 195.509C1190.91 202.18 1188.27 204.106 1188.27 204.106C1188.27 204.106 1177.65 199.031 1182.5 193.724" stroke="#00BA4A" stroke-width="2"/>
<path d="M1150.89 170.183C1149.99 174.269 1145.51 173.047 1143.38 171.925C1144.24 168.478 1146.57 162.394 1149.03 165.634C1145.95 161.338 1149.41 157.928 1146.77 158.224C1146.55 158.258 1146.36 158.291 1146.21 158.319C1146.16 158.33 1146.11 158.342 1146.06 158.355C1145.76 158.427 1145.85 158.389 1146.21 158.319C1146.42 158.274 1146.61 158.242 1146.77 158.224C1148.95 157.889 1154.46 157.524 1154.7 161.993C1155.73 161.902 1161.42 163.562 1157.02 167.68C1160.56 171.545 1151.65 178.168 1152.98 175.302C1154.05 173.008 1152.03 170.934 1150.89 170.183Z" fill="#00BA4A"/>
<path d="M1157.02 167.68C1155.36 166.812 1151.8 166.097 1150.89 170.183M1157.02 167.68C1161.42 163.562 1155.73 161.902 1154.7 161.993M1157.02 167.68C1160.56 171.545 1151.65 178.168 1152.98 175.302C1154.05 173.008 1152.03 170.934 1150.89 170.183M1150.89 170.183C1149.99 174.269 1145.51 173.047 1143.38 171.925C1144.24 168.478 1146.57 162.394 1149.03 165.634M1149.03 165.634C1152.12 169.683 1153.66 162.084 1154.7 161.993M1149.03 165.634C1145.72 161.016 1149.97 157.421 1146.06 158.355C1144.43 158.743 1154.38 155.953 1154.7 161.993" stroke="#00BA4A" stroke-width="2"/>
<path d="M1151.4 171.16C1147.98 173.569 1150.83 177.234 1152.68 178.765C1155.54 176.647 1160.25 172.155 1156.31 171.124C1161.47 172.318 1163.28 167.808 1164.03 170.365C1164.08 170.582 1164.12 170.768 1164.15 170.912C1164.16 170.962 1164.17 171.013 1164.18 171.066C1164.23 171.373 1164.22 171.27 1164.15 170.912C1164.11 170.702 1164.07 170.521 1164.03 170.365C1163.49 168.216 1161.71 162.994 1157.49 164.495C1157.18 163.504 1153.46 158.896 1151.35 164.54C1146.42 162.764 1143.74 173.534 1145.87 171.201C1147.58 169.334 1150.27 170.396 1151.4 171.16Z" fill="#00BA4A"/>
<path d="M1151.35 164.54C1152.79 165.743 1154.82 168.752 1151.4 171.16M1151.35 164.54C1153.46 158.896 1157.18 163.504 1157.49 164.495M1151.35 164.54C1146.42 162.764 1143.74 173.534 1145.87 171.201C1147.58 169.334 1150.27 170.396 1151.4 171.16M1151.4 171.16C1147.98 173.569 1150.83 177.234 1152.68 178.765C1155.54 176.647 1160.25 172.155 1156.31 171.124M1156.31 171.124C1151.39 169.836 1157.81 165.485 1157.49 164.495M1156.31 171.124C1161.85 172.408 1163.53 167.099 1164.18 171.066C1164.44 172.72 1163.19 162.466 1157.49 164.495" stroke="#00BA4A" stroke-width="2"/>
<path d="M1183.06 140.718C1183.93 136.625 1188.42 137.81 1190.56 138.915C1189.73 142.368 1187.45 148.471 1184.95 145.252C1188.07 149.522 1184.64 152.96 1187.28 152.643C1187.5 152.607 1187.69 152.572 1187.83 152.543C1187.88 152.532 1187.93 152.519 1187.99 152.507C1188.29 152.432 1188.19 152.47 1187.83 152.543C1187.63 152.59 1187.44 152.624 1187.28 152.643C1185.1 152.996 1179.59 153.406 1179.32 148.939C1178.28 149.039 1172.59 147.426 1176.95 143.272C1173.38 139.436 1182.24 132.74 1180.93 135.617C1179.88 137.919 1181.91 139.977 1183.06 140.718Z" fill="#00BA4A"/>
<path d="M1176.95 143.272C1178.62 144.126 1182.19 144.811 1183.06 140.718M1176.95 143.272C1172.59 147.426 1178.28 149.039 1179.32 148.939M1176.95 143.272C1173.38 139.436 1182.24 132.74 1180.93 135.617C1179.88 137.919 1181.91 139.977 1183.06 140.718M1183.06 140.718C1183.93 136.625 1188.42 137.81 1190.56 138.915C1189.73 142.368 1187.45 148.471 1184.95 145.252M1184.95 145.252C1181.84 141.229 1180.35 148.84 1179.32 148.939M1184.95 145.252C1188.31 149.842 1184.08 153.472 1187.99 152.507C1189.61 152.104 1179.69 154.976 1179.32 148.939" stroke="#00BA4A" stroke-width="2"/>
<path d="M1183.63 165.636C1188.75 166.223 1187.92 171.339 1185.12 175.209C1181.9 172.844 1175.23 172.186 1178.57 168.615C1173.76 173.451 1172.63 166.705 1171.36 171.769C1170.93 173.489 1165.75 163.174 1172.94 161.937C1172.6 160.638 1173.33 153.208 1179.26 158.214C1183.12 153.204 1193.06 163.58 1189.32 162.285C1186.33 161.249 1184.28 164.088 1183.63 165.636Z" fill="#00BA4A"/>
<path d="M1179.26 158.214C1178.59 160.443 1178.52 165.05 1183.63 165.636M1179.26 158.214C1173.33 153.208 1172.6 160.638 1172.94 161.937M1179.26 158.214C1183.12 153.204 1193.06 163.58 1189.32 162.285C1186.33 161.249 1184.28 164.088 1183.63 165.636M1183.63 165.636C1188.75 166.223 1187.92 171.339 1185.12 175.209C1181.9 172.844 1175.23 172.186 1178.57 168.615M1178.57 168.615C1182.76 164.152 1173.28 163.237 1172.94 161.937M1178.57 168.615C1173.76 173.451 1172.63 166.705 1171.36 171.769C1170.93 173.489 1165.75 163.174 1172.94 161.937" stroke="#00BA4A" stroke-width="2"/>
<path d="M1148.56 233.862C1147.44 231.225 1149.38 228.306 1152.24 228.306H1192.2C1195.07 228.306 1197 231.225 1195.89 233.862L1182.99 264.42H1161.46L1148.56 233.862Z" fill="#403E3E"/>
<path d="M1182.99 264.42H1161.46V264.42C1160.34 265.228 1160.91 267 1162.29 267H1182.16C1183.54 267 1184.11 265.228 1182.99 264.42V264.42Z" fill="#403E3E"/>
</g>
<rect x="994" y="287" width="13" height="14" rx="4" fill="#403E3E"/>
<rect x="1032" y="290" width="13" height="14" rx="4" fill="#403E3E"/>
<rect x="1064.31" y="277.774" width="13" height="26.6639" rx="4" transform="rotate(27.4986 1064.31 277.774)" fill="white"/>
<rect x="1060.38" y="285.334" width="13" height="9.74016" transform="rotate(27.4986 1060.38 285.334)" fill="#F07167"/>
<rect x="1015" y="283" width="13" height="14" rx="4" fill="#FAFAFA" fill-opacity="0.81"/>
<rect x="986" y="293" width="104" height="41" rx="2" fill="#0088D5"/>
<rect x="1102" y="293" width="104" height="41" rx="2" fill="#FAFAFA"/>
<path d="M1135 362C1154.92 362 1186 362 1186 362L1188 401H1132C1132 401 1133 376.5 1135 362Z" fill="#FFE5C6"/>
<path d="M1135 362C1154.92 362 1186 362 1186 362L1185.79 360.853C1184.75 355.147 1179.78 351 1173.99 351H1146.25C1143.5 351 1140.78 351.909 1139.01 354.011C1137.31 356.028 1135.43 358.879 1135 362Z" fill="#FFE5C6"/>
<path d="M1177.91 401C1169.02 393.4 1174.2 365 1177.91 352C1183.96 354.5 1184.97 358.5 1185.98 362L1188 401H1177.91Z" fill="#EEC799"/>
<rect x="1137" y="369" width="32" height="11" fill="#FFF7ED"/>
<path d="M1121.98 372.92C1135.14 372.92 1155.68 372.92 1155.68 372.92L1157 401H1120C1120 401 1120.66 383.36 1121.98 372.92Z" fill="#FFE5C6"/>
<path d="M1121.98 372.92C1135.14 372.92 1155.68 372.92 1155.68 372.92V372.92C1154.92 368.35 1150.96 365 1146.33 365H1131.15C1128.22 365 1125.28 366.007 1123.71 368.477C1122.9 369.751 1122.19 371.284 1121.98 372.92Z" fill="#FFE5C6"/>
<path d="M1150.33 401C1144.46 395.528 1147.88 375.08 1150.33 365.72C1154.33 367.52 1155 370.4 1155.67 372.92L1157 401H1150.33Z" fill="#EEC799"/>
<rect x="1123.3" y="377.96" width="21.1429" height="7.92" fill="#FFF7ED"/>
<path d="M1104.98 372.92C1118.14 372.92 1138.68 372.92 1138.68 372.92L1140 401H1103C1103 401 1103.66 383.36 1104.98 372.92Z" fill="#FFE5C6"/>
<path d="M1104.98 372.92C1118.14 372.92 1138.68 372.92 1138.68 372.92V372.92C1137.92 368.35 1133.96 365 1129.33 365H1114.15C1111.22 365 1108.28 366.007 1106.71 368.477C1105.9 369.751 1105.19 371.284 1104.98 372.92Z" fill="#FFE5C6"/>
<path d="M1133.33 401C1127.46 395.528 1130.88 375.08 1133.33 365.72C1137.33 367.52 1138 370.4 1138.67 372.92L1140 401H1133.33Z" fill="#EEC799"/>
<rect x="1106.3" y="377.96" width="21.1429" height="7.92" fill="#FFF7ED"/>
<path d="M999.898 388.385C1000.72 387.55 1001.48 387 1002.5 387C1003.52 387 1004.28 387.55 1005.1 388.385C1007.12 390.438 1005.1 396 1005.1 396H999.898C999.898 396 997.877 390.438 999.898 388.385Z" fill="white"/>
<path d="M1008.9 388.385C1009.72 387.55 1010.48 387 1011.5 387C1012.52 387 1013.28 387.55 1014.1 388.385C1016.12 390.438 1014.1 396 1014.1 396H1008.9C1008.9 396 1006.88 390.438 1008.9 388.385Z" fill="white"/>
<path d="M1026.9 388.385C1027.72 387.55 1028.48 387 1029.5 387C1030.52 387 1031.28 387.55 1032.1 388.385C1034.12 390.438 1032.1 396 1032.1 396H1026.9C1026.9 396 1024.88 390.438 1026.9 388.385Z" fill="white"/>
<path d="M1035.9 388.385C1036.72 387.55 1037.48 387 1038.5 387C1039.52 387 1040.28 387.55 1041.1 388.385C1043.12 390.438 1041.1 396 1041.1 396H1035.9C1035.9 396 1033.88 390.438 1035.9 388.385Z" fill="#F9F2E0"/>
<path d="M1044.9 388.385C1045.72 387.55 1046.48 387 1047.5 387C1048.52 387 1049.28 387.55 1050.1 388.385C1052.12 390.438 1050.1 396 1050.1 396H1044.9C1044.9 396 1042.88 390.438 1044.9 388.385Z" fill="white"/>
<rect x="995" y="392" width="61" height="9" rx="3" fill="#403E3E"/>
<rect x="985" y="190" width="136" height="75" rx="2" fill="white"/>
<rect x="994" y="195" width="102" height="66" rx="2" fill="#403E3E"/>
<g filter="url(#filter15_d_1_2)">
<circle cx="1108.5" cy="211.5" r="9.5" fill="white"/>
</g>
<g filter="url(#filter16_d_1_2)">
<circle cx="1108.5" cy="234.5" r="9.5" fill="white"/>
</g>
</g>
</g>
<defs>
<filter id="filter0_d_1_2" x="68" y="363" width="58" height="104.84" filterUnits="userSpaceOnUse" color-interpolation-filters="sRGB">
<feFlood flood-opacity="0" result="BackgroundImageFix"/>
<feColorMatrix in="SourceAlpha" type="matrix" values="0 0 0 0 0 0 0 0 0 0 0 0 0 0 0 0 0 0 127 0" result="hardAlpha"/>
<feOffset dx="-1" dy="4"/>
<feGaussianBlur stdDeviation="1"/>
<feComposite in2="hardAlpha" operator="out"/>
<feColorMatrix type="matrix" values="0 0 0 0 0 0 0 0 0 0 0 0 0 0 0 0 0 0 0.25 0"/>
<feBlend mode="normal" in2="BackgroundImageFix" result="effect1_dropShadow_1_2"/>
<feBlend mode="normal" in="SourceGraphic" in2="effect1_dropShadow_1_2" result="shape"/>
</filter>
<filter id="filter1_d_1_2" x="376" y="290" width="67" height="55" filterUnits="userSpaceOnUse" color-interpolation-filters="sRGB">
<feFlood flood-opacity="0" result="BackgroundImageFix"/>
<feColorMatrix in="SourceAlpha" type="matrix" values="0 0 0 0 0 0 0 0 0 0 0 0 0 0 0 0 0 0 127 0" result="hardAlpha"/>
<feOffset dx="-1"/>
<feGaussianBlur stdDeviation="0.5"/>
<feComposite in2="hardAlpha" operator="out"/>
<feColorMatrix type="matrix" values="0 0 0 0 0 0 0 0 0 0 0 0 0 0 0 0 0 0 0.25 0"/>
<feBlend mode="normal" in2="BackgroundImageFix" result="effect1_dropShadow_1_2"/>
<feBlend mode="normal" in="SourceGraphic" in2="effect1_dropShadow_1_2" result="shape"/>
</filter>
<filter id="filter2_d_1_2" x="492" y="204" width="106" height="98" filterUnits="userSpaceOnUse" color-interpolation-filters="sRGB">
<feFlood flood-opacity="0" result="BackgroundImageFix"/>
<feColorMatrix in="SourceAlpha" type="matrix" values="0 0 0 0 0 0 0 0 0 0 0 0 0 0 0 0 0 0 127 0" result="hardAlpha"/>
<feOffset dy="4"/>
<feGaussianBlur stdDeviation="1"/>
<feComposite in2="hardAlpha" operator="out"/>
<feColorMatrix type="matrix" values="0 0 0 0 0 0 0 0 0 0 0 0 0 0 0 0 0 0 0.25 0"/>
<feBlend mode="normal" in2="BackgroundImageFix" result="effect1_dropShadow_1_2"/>
<feBlend mode="normal" in="SourceGraphic" in2="effect1_dropShadow_1_2" result="shape"/>
</filter>
<filter id="filter3_d_1_2" x="168" y="-114" width="183" height="327" filterUnits="userSpaceOnUse" color-interpolation-filters="sRGB">
<feFlood flood-opacity="0" result="BackgroundImageFix"/>
<feColorMatrix in="SourceAlpha" type="matrix" values="0 0 0 0 0 0 0 0 0 0 0 0 0 0 0 0 0 0 127 0" result="hardAlpha"/>
<feOffset dy="7"/>
<feGaussianBlur stdDeviation="1"/>
<feComposite in2="hardAlpha" operator="out"/>
<feColorMatrix type="matrix" values="0 0 0 0 0 0 0 0 0 0 0 0 0 0 0 0 0 0 0.25 0"/>
<feBlend mode="normal" in2="BackgroundImageFix" result="effect1_dropShadow_1_2"/>
<feBlend mode="normal" in="SourceGraphic" in2="effect1_dropShadow_1_2" result="shape"/>
</filter>
<filter id="filter4_d_1_2" x="162" y="-114" width="97.5" height="319" filterUnits="userSpaceOnUse" color-interpolation-filters="sRGB">
<feFlood flood-opacity="0" result="BackgroundImageFix"/>
<feColorMatrix in="SourceAlpha" type="matrix" values="0 0 0 0 0 0 0 0 0 0 0 0 0 0 0 0 0 0 127 0" result="hardAlpha"/>
<feOffset dx="-6" dy="3"/>
<feGaussianBlur stdDeviation="1"/>
<feComposite in2="hardAlpha" operator="out"/>
<feColorMatrix type="matrix" values="0 0 0 0 0 0 0 0 0 0 0 0 0 0 0 0 0 0 0.25 0"/>
<feBlend mode="normal" in2="BackgroundImageFix" result="effect1_dropShadow_1_2"/>
<feBlend mode="normal" in="SourceGraphic" in2="effect1_dropShadow_1_2" result="shape"/>
</filter>
<filter id="filter5_d_1_2" x="454.233" y="92" width="43.6353" height="18" filterUnits="userSpaceOnUse" color-interpolation-filters="sRGB">
<feFlood flood-opacity="0" result="BackgroundImageFix"/>
<feColorMatrix in="SourceAlpha" type="matrix" values="0 0 0 0 0 0 0 0 0 0 0 0 0 0 0 0 0 0 127 0" result="hardAlpha"/>
<feOffset dx="-2"/>
<feGaussianBlur stdDeviation="1"/>
<feComposite in2="hardAlpha" operator="out"/>
<feColorMatrix type="matrix" values="0 0 0 0 0 0 0 0 0 0 0 0 0 0 0 0 0 0 0.25 0"/>
<feBlend mode="normal" in2="BackgroundImageFix" result="effect1_dropShadow_1_2"/>
<feBlend mode="normal" in="SourceGraphic" in2="effect1_dropShadow_1_2" result="shape"/>
</filter>
<filter id="filter6_d_1_2" x="454.233" y="101" width="43.6353" height="18" filterUnits="userSpaceOnUse" color-interpolation-filters="sRGB">
<feFlood flood-opacity="0" result="BackgroundImageFix"/>
<feColorMatrix in="SourceAlpha" type="matrix" values="0 0 0 0 0 0 0 0 0 0 0 0 0 0 0 0 0 0 127 0" result="hardAlpha"/>
<feOffset dx="-2"/>
<feGaussianBlur stdDeviation="1"/>
<feComposite in2="hardAlpha" operator="out"/>
<feColorMatrix type="matrix" values="0 0 0 0 0 0 0 0 0 0 0 0 0 0 0 0 0 0 0.25 0"/>
<feBlend mode="normal" in2="BackgroundImageFix" result="effect1_dropShadow_1_2"/>
<feBlend mode="normal" in="SourceGraphic" in2="effect1_dropShadow_1_2" result="shape"/>
</filter>
<filter id="filter7_d_1_2" x="454.233" y="110" width="43.6353" height="18" filterUnits="userSpaceOnUse" color-interpolation-filters="sRGB">
<feFlood flood-opacity="0" result="BackgroundImageFix"/>
<feColorMatrix in="SourceAlpha" type="matrix" values="0 0 0 0 0 0 0 0 0 0 0 0 0 0 0 0 0 0 127 0" result="hardAlpha"/>
<feOffset dx="-2"/>
<feGaussianBlur stdDeviation="1"/>
<feComposite in2="hardAlpha" operator="out"/>
<feColorMatrix type="matrix" values="0 0 0 0 0 0 0 0 0 0 0 0 0 0 0 0 0 0 0.25 0"/>
<feBlend mode="normal" in2="BackgroundImageFix" result="effect1_dropShadow_1_2"/>
<feBlend mode="normal" in="SourceGraphic" in2="effect1_dropShadow_1_2" result="shape"/>
</filter>
<filter id="filter8_d_1_2" x="454.233" y="119" width="43.6353" height="18" filterUnits="userSpaceOnUse" color-interpolation-filters="sRGB">
<feFlood flood-opacity="0" result="BackgroundImageFix"/>
<feColorMatrix in="SourceAlpha" type="matrix" values="0 0 0 0 0 0 0 0 0 0 0 0 0 0 0 0 0 0 127 0" result="hardAlpha"/>
<feOffset dx="-2"/>
<feGaussianBlur stdDeviation="1"/>
<feComposite in2="hardAlpha" operator="out"/>
<feColorMatrix type="matrix" values="0 0 0 0 0 0 0 0 0 0 0 0 0 0 0 0 0 0 0.25 0"/>
<feBlend mode="normal" in2="BackgroundImageFix" result="effect1_dropShadow_1_2"/>
<feBlend mode="normal" in="SourceGraphic" in2="effect1_dropShadow_1_2" result="shape"/>
</filter>
<filter id="filter9_d_1_2" x="454.233" y="128" width="43.6353" height="18" filterUnits="userSpaceOnUse" color-interpolation-filters="sRGB">
<feFlood flood-opacity="0" result="BackgroundImageFix"/>
<feColorMatrix in="SourceAlpha" type="matrix" values="0 0 0 0 0 0 0 0 0 0 0 0 0 0 0 0 0 0 127 0" result="hardAlpha"/>
<feOffset dx="-2"/>
<feGaussianBlur stdDeviation="1"/>
<feComposite in2="hardAlpha" operator="out"/>
<feColorMatrix type="matrix" values="0 0 0 0 0 0 0 0 0 0 0 0 0 0 0 0 0 0 0.25 0"/>
<feBlend mode="normal" in2="BackgroundImageFix" result="effect1_dropShadow_1_2"/>
<feBlend mode="normal" in="SourceGraphic" in2="effect1_dropShadow_1_2" result="shape"/>
</filter>
<filter id="filter10_d_1_2" x="491.233" y="34" width="43.6353" height="18" filterUnits="userSpaceOnUse" color-interpolation-filters="sRGB">
<feFlood flood-opacity="0" result="BackgroundImageFix"/>
<feColorMatrix in="SourceAlpha" type="matrix" values="0 0 0 0 0 0 0 0 0 0 0 0 0 0 0 0 0 0 127 0" result="hardAlpha"/>
<feOffset dx="-2"/>
<feGaussianBlur stdDeviation="1"/>
<feComposite in2="hardAlpha" operator="out"/>
<feColorMatrix type="matrix" values="0 0 0 0 0 0 0 0 0 0 0 0 0 0 0 0 0 0 0.25 0"/>
<feBlend mode="normal" in2="BackgroundImageFix" result="effect1_dropShadow_1_2"/>
<feBlend mode="normal" in="SourceGraphic" in2="effect1_dropShadow_1_2" result="shape"/>
</filter>
<filter id="filter11_d_1_2" x="575.778" y="19" width="36.4434" height="34" filterUnits="userSpaceOnUse" color-interpolation-filters="sRGB">
<feFlood flood-opacity="0" result="BackgroundImageFix"/>
<feColorMatrix in="SourceAlpha" type="matrix" values="0 0 0 0 0 0 0 0 0 0 0 0 0 0 0 0 0 0 127 0" result="hardAlpha"/>
<feOffset dx="-2"/>
<feGaussianBlur stdDeviation="1"/>
<feComposite in2="hardAlpha" operator="out"/>
<feColorMatrix type="matrix" values="0 0 0 0 0 0 0 0 0 0 0 0 0 0 0 0 0 0 0.25 0"/>
<feBlend mode="normal" in2="BackgroundImageFix" result="effect1_dropShadow_1_2"/>
<feBlend mode="normal" in="SourceGraphic" in2="effect1_dropShadow_1_2" result="shape"/>
</filter>
<filter id="filter12_d_1_2" x="967" y="104" width="256" height="433" filterUnits="userSpaceOnUse" color-interpolation-filters="sRGB">
<feFlood flood-opacity="0" result="BackgroundImageFix"/>
<feColorMatrix in="SourceAlpha" type="matrix" values="0 0 0 0 0 0 0 0 0 0 0 0 0 0 0 0 0 0 127 0" result="hardAlpha"/>
<feOffset dx="-5"/>
<feGaussianBlur stdDeviation="1"/>
<feComposite in2="hardAlpha" operator="out"/>
<feColorMatrix type="matrix" values="0 0 0 0 0 0 0 0 0 0 0 0 0 0 0 0 0 0 0.25 0"/>
<feBlend mode="normal" in2="BackgroundImageFix" result="effect1_dropShadow_1_2"/>
<feBlend mode="normal" in="SourceGraphic" in2="effect1_dropShadow_1_2" result="shape"/>
</filter>
<filter id="filter13_d_1_2" x="1098" y="407" width="117" height="100.5" filterUnits="userSpaceOnUse" color-interpolation-filters="sRGB">
<feFlood flood-opacity="0" result="BackgroundImageFix"/>
<feColorMatrix in="SourceAlpha" type="matrix" values="0 0 0 0 0 0 0 0 0 0 0 0 0 0 0 0 0 0 127 0" result="hardAlpha"/>
<feOffset dx="-2" dy="2"/>
<feGaussianBlur stdDeviation="1"/>
<feComposite in2="hardAlpha" operator="out"/>
<feColorMatrix type="matrix" values="0 0 0 0 0 0 0 0 0 0 0 0 0 0 0 0 0 0 0.25 0"/>
<feBlend mode="normal" in2="BackgroundImageFix" result="effect1_dropShadow_1_2"/>
<feBlend mode="normal" in="SourceGraphic" in2="effect1_dropShadow_1_2" result="shape"/>
</filter>
<filter id="filter14_d_1_2" x="1137.22" y="130.919" width="66.7369" height="137.081" filterUnits="userSpaceOnUse" color-interpolation-filters="sRGB">
<feFlood flood-opacity="0" result="BackgroundImageFix"/>
<feColorMatrix in="SourceAlpha" type="matrix" values="0 0 0 0 0 0 0 0 0 0 0 0 0 0 0 0 0 0 127 0" result="hardAlpha"/>
<feOffset dx="-3" dy="-1"/>
<feGaussianBlur stdDeviation="1"/>
<feComposite in2="hardAlpha" operator="out"/>
<feColorMatrix type="matrix" values="0 0 0 0 0 0 0 0 0 0 0 0 0 0 0 0 0 0 0.25 0"/>
<feBlend mode="normal" in2="BackgroundImageFix" result="effect1_dropShadow_1_2"/>
<feBlend mode="normal" in="SourceGraphic" in2="effect1_dropShadow_1_2" result="shape"/>
</filter>
<filter id="filter15_d_1_2" x="1096" y="199" width="25" height="25" filterUnits="userSpaceOnUse" color-interpolation-filters="sRGB">
<feFlood flood-opacity="0" result="BackgroundImageFix"/>
<feColorMatrix in="SourceAlpha" type="matrix" values="0 0 0 0 0 0 0 0 0 0 0 0 0 0 0 0 0 0 127 0" result="hardAlpha"/>
<feMorphology radius="1" operator="dilate" in="SourceAlpha" result="effect1_dropShadow_1_2"/>
<feOffset/>
<feGaussianBlur stdDeviation="1"/>
<feComposite in2="hardAlpha" operator="out"/>
<feColorMatrix type="matrix" values="0 0 0 0 0 0 0 0 0 0 0 0 0 0 0 0 0 0 0.25 0"/>
<feBlend mode="normal" in2="BackgroundImageFix" result="effect1_dropShadow_1_2"/>
<feBlend mode="normal" in="SourceGraphic" in2="effect1_dropShadow_1_2" result="shape"/>
</filter>
<filter id="filter16_d_1_2" x="1096" y="222" width="25" height="25" filterUnits="userSpaceOnUse" color-interpolation-filters="sRGB">
<feFlood flood-opacity="0" result="BackgroundImageFix"/>
<feColorMatrix in="SourceAlpha" type="matrix" values="0 0 0 0 0 0 0 0 0 0 0 0 0 0 0 0 0 0 127 0" result="hardAlpha"/>
<feMorphology radius="1" operator="dilate" in="SourceAlpha" result="effect1_dropShadow_1_2"/>
<feOffset/>
<feGaussianBlur stdDeviation="1"/>
<feComposite in2="hardAlpha" operator="out"/>
<feColorMatrix type="matrix" values="0 0 0 0 0 0 0 0 0 0 0 0 0 0 0 0 0 0 0.25 0"/>
<feBlend mode="normal" in2="BackgroundImageFix" result="effect1_dropShadow_1_2"/>
<feBlend mode="normal" in="SourceGraphic" in2="effect1_dropShadow_1_2" result="shape"/>
</filter>
<linearGradient id="paint0_linear_1_2" x1="628.5" y1="600" x2="626.5" y2="509.5" gradientUnits="userSpaceOnUse">
<stop stop-color="#C8A57B"/>
<stop offset="1" stop-color="#AF8B60"/>
</linearGradient>
<clipPath id="clip0_1_2">
<rect width="1732" height="620" fill="white"/>
</clipPath>
</defs>
</svg>
